<?xml version="1.0" encoding="UTF-8"?>
<!DOCTYPE svg PUBLIC "-//W3C//DTD SVG 1.0//EN" "http://www.w3.org/TR/2001/REC-SVG-20010904/DTD/svg10.dtd">
<!-- Creator: CorelDRAW 2018 (64-Bit) -->
<svg xmlns="http://www.w3.org/2000/svg" xml:space="preserve" width="11in" height="8.5in" version="1.0" style="shape-rendering:geometricPrecision; text-rendering:geometricPrecision; image-rendering:optimizeQuality; fill-rule:evenodd; clip-rule:evenodd"
viewBox="0 0 11000 8500"
 xmlns:xlink="http://www.w3.org/1999/xlink">
 <defs>
  <style type="text/css">
   <![CDATA[
    .str0 {stroke:red;stroke-width:3;stroke-linecap:round;stroke-linejoin:round;stroke-miterlimit:2.61313}
    .str1 {stroke:lime;stroke-width:3;stroke-linecap:square;stroke-miterlimit:22.9256}
    .fil0 {fill:none}
   ]]>
  </style>
 </defs>
 <g id="Layer_x0020_1">
  <metadata id="CorelCorpID_0Corel-Layer"/>
  <g id="_2739561715888">
   <circle class="fil0 str0" cx="1612.67" cy="2951.18" r="39.37"/>
   <circle class="fil0 str0" cx="1341.8" cy="4433.46" r="39.37"/>
   <circle class="fil0 str0" cx="3005.97" cy="3679.92" r="39.37"/>
   <circle class="fil0 str0" cx="3650.46" cy="4877.95" r="39.37"/>
   <circle class="fil0 str0" cx="5457.15" cy="4996.06" r="39.37"/>
   <circle class="fil0 str0" cx="7264.24" cy="4877.95" r="39.37"/>
   <circle class="fil0 str0" cx="7913.45" cy="3679.52" r="39.37"/>
   <circle class="fil0 str0" cx="9577.63" cy="4433.46" r="39.37"/>
   <circle class="fil0 str0" cx="9307.94" cy="2950.78" r="39.37"/>
   <circle class="fil0 str0" cx="6330.38" cy="3340.55" r="39.37"/>
   <circle class="fil0 str0" cx="4583.93" cy="3340.55" r="39.37"/>
   <path class="fil0 str1" d="M4921.67 1870.17l100.69 17.76c2.94,0.96 5.34,1.41 8.29,2.37l46.19 7.11c2.95,0.95 5.35,1.41 8.29,2.37l39.09 5.92c5.06,1.64 10.33,1.91 15.4,3.56l4.74 0c5.07,1.64 10.33,1.91 15.4,3.55l4.74 0c3.68,1.19 5.8,1.18 9.48,2.37l4.74 0c5.07,1.64 10.33,1.91 15.4,3.55l4.74 0c5.06,1.64 10.33,1.91 15.4,3.56l146.88 24.87c5.06,1.64 10.33,1.91 15.4,3.55l4.74 0c5.07,1.64 10.33,1.91 15.4,3.56l4.74 0c3.68,1.19 5.8,1.17 9.48,2.37l4.74 0c5.07,1.64 10.33,1.91 15.4,3.56l4.74 0c5.06,1.64 10.33,1.91 15.4,3.55l4.74 0c5.06,1.64 10.33,1.91 15.4,3.56l183.59 31.97c4.27,0.09 9.24,1.14 13.03,2.37l4.74 0c5.07,1.64 10.33,1.91 15.4,3.55l4.74 0c5.06,1.65 10.33,1.91 15.4,3.56l4.74 0c5.07,1.64 10.33,1.91 15.4,3.55l4.74 0c3.68,1.19 5.8,1.18 9.48,2.37l4.74 0c5.07,1.64 10.33,1.91 15.4,3.55l4.74 0c5.06,1.64 10.33,1.91 15.4,3.56l4.74 0c3.68,1.19 5.8,1.18 9.48,2.37l4.74 0c5.06,1.65 10.33,1.91 15.4,3.56l4.74 0c5.06,1.64 10.33,1.91 15.4,3.55l4.74 0c5.07,1.64 10.33,1.91 15.4,3.56l183.6 31.98c4.26,0.09 9.24,1.14 13.03,2.37l4.74 0c5.06,1.64 10.33,1.91 15.4,3.56l4.74 0c5.07,1.64 10.33,1.91 15.4,3.55l4.74 0c5.07,1.64 10.33,1.91 15.4,3.56l4.74 0c3.68,1.19 5.8,1.17 9.48,2.37l4.74 0c5.06,1.64 10.33,1.91 15.4,3.56l4.74 0c5.06,1.64 10.33,1.91 15.4,3.55l221.5 37.9c5.06,1.64 10.33,1.91 15.4,3.55l4.74 0c5.07,1.65 10.33,1.91 15.4,3.56 4.7,0.74 9.49,0.6 14.21,3.55 9.32,5.83 14.74,18.8 13.03,29.61l-4.74 28.42c-1.19,3.68 -1.18,5.8 -2.37,9.48l0 4.74c-1.64,5.06 -1.91,10.33 -3.55,15.39l0 4.74c-1.64,5.06 -1.91,10.33 -3.56,15.39l0 4.74c-1.19,3.68 -1.18,5.8 -2.37,9.48l0 4.74c-1.64,5.06 -1.91,10.33 -3.55,15.4l0 4.74c-1.64,5.06 -1.91,10.33 -3.56,15.39l0 4.74c-1.64,5.06 -1.91,10.33 -3.55,15.39l0 4.74c-1.84,11.64 -5.84,20.73 2.37,33.16 3.33,5.04 12.02,11.42 17.77,13.03 4.69,0.1 14.69,2.17 18.95,3.56l4.74 0c5.06,1.64 10.33,1.91 15.4,3.55l4.74 0c5.07,1.64 10.33,1.91 15.4,3.55l4.74 0c3.68,1.19 5.8,1.18 9.48,2.37l4.74 0c5.07,1.64 10.33,1.91 15.4,3.55l4.74 0c5.06,1.65 10.33,1.91 15.4,3.56l4.74 0c3.68,1.19 5.8,1.18 9.48,2.37l4.74 0c5.06,1.64 10.33,1.91 15.4,3.55l4.74 0c5.07,1.64 10.33,1.91 15.4,3.55l4.74 0c5.06,1.64 10.33,1.91 15.4,3.56l176.49 30.79c4.66,0.1 2.93,-0.17 7.11,1.19 4.19,0.66 11.52,1.07 15.4,0 7.02,-1.94 17.86,-11.48 19.97,-19.04 0.5,-4.36 2.39,-13.58 3.72,-17.68l0 -4.74c1.19,-3.68 1.18,-5.8 2.37,-9.47l0 -4.74c1.64,-5.07 1.91,-10.33 3.55,-15.4l0 -4.74c1.64,-5.06 1.91,-10.33 3.56,-15.4l18.95 -108.95c0.21,-9.76 3.47,-17.47 9.48,-24.87 4.94,-4.46 12.19,-8.29 18.95,-8.29 263.34,0 3031.23,-1.29 3039.41,0 28.72,4.54 58.11,17.38 76.99,40.27 3.74,5.52 8.82,12.57 13.03,17.76 1.02,4.83 0.49,3.23 3.55,7.11 6.96,14.87 10.5,32.56 13.03,48.56l0 4.74c1.64,5.06 1.91,10.33 3.55,15.4l9.48 54.48c0.1,4.69 2.17,14.68 3.56,18.95l0 4.74c1.64,5.06 1.91,10.33 3.55,15.4l11.85 72.24c1.64,5.06 1.91,10.33 3.56,15.4l16.58 94.74c0.09,4.26 1.14,9.24 2.37,13.02l0 4.74c1.65,5.06 1.91,10.33 3.56,15.39l0 4.74c1.64,5.06 1.91,10.33 3.56,15.39l5.92 34.35c0.1,4.69 2.17,14.68 3.55,18.95l0 4.74c1.65,5.06 1.91,10.33 3.56,15.39l11.85 72.24c1.64,5.06 1.91,10.33 3.55,15.39l9.48 54.48c0.1,4.69 2.17,14.68 3.56,18.95l0 4.74c1.64,5.06 1.91,10.33 3.55,15.39l0 4.74c1.19,3.68 1.18,5.8 2.37,9.47l0 4.74c1.64,5.07 1.91,10.33 3.56,15.4l13.03 74.61c0.1,4.69 2.17,14.68 3.56,18.95l13.03 74.61c0.09,4.26 1.14,9.24 2.37,13.03l0 4.74c1.64,5.07 1.91,10.33 3.55,15.4l9.48 54.48c0.1,4.69 2.17,14.69 3.56,18.95l13.03 74.61c0.09,4.26 1.14,9.24 2.37,13.03l0 4.74c1.64,5.07 1.91,10.33 3.56,15.4l16.58 94.74c0.09,4.26 1.14,9.24 2.37,13.03l0 4.74c1.65,5.06 1.91,10.33 3.56,15.4l9.48 54.48c0.1,4.69 2.17,14.68 3.55,18.95l0 4.74c1.65,5.06 1.91,10.33 3.56,15.4l11.85 72.24c1.64,5.06 1.91,10.33 3.55,15.4l9.48 54.48c0.1,4.69 2.17,14.68 3.56,18.95l0 4.74c1.64,5.06 1.91,10.33 3.55,15.4l0 4.74c1.19,3.68 1.18,5.8 2.37,9.47l0 4.74c1.64,5.06 1.91,10.33 3.56,15.39l3.55 20.13c0.09,4.26 1.14,9.24 2.37,13.03l0 4.74c1.64,5.06 1.91,10.33 3.55,15.4l0 4.74c1.65,5.06 1.91,10.33 3.56,15.39l0 4.74c1.64,5.06 1.91,10.33 3.56,15.39l11.84 72.24c1.64,5.06 1.91,10.33 3.56,15.39l9.48 54.48c0.1,4.69 2.17,14.68 3.55,18.95l0 4.74c1.64,5.06 1.91,10.33 3.56,15.39l13.03 74.61c0.09,4.27 1.14,9.24 2.37,13.03l0 4.74c1.64,5.06 1.91,10.33 3.56,15.39l5.92 34.35c0.1,4.69 2.17,14.68 3.56,18.95l9.47 59.21c1.65,5.06 1.91,10.33 3.56,15.4l9.48 54.48c0.1,4.69 2.17,14.69 3.55,18.95l0 4.74c1.65,5.07 1.91,10.33 3.56,15.4l11.85 72.24c1.64,5.07 1.91,10.33 3.55,15.4l0 4.74c1.64,5.06 1.91,10.33 3.56,15.4l1.19 26.06c-3.79,23.95 -10.68,47.43 -27.24,67.5 -12.69,15.37 -27.61,25.68 -46.2,34.05 -13.15,5.92 -24.19,5.7 -36.72,9.77l-4.74 0c-5.06,1.64 -10.33,1.91 -15.4,3.55l-4.74 0c-5.07,1.64 -10.33,1.91 -15.4,3.56l-34.35 5.92c-4.69,0.1 -14.69,2.17 -18.95,3.55l-4.74 0c-3.68,1.19 -5.8,1.18 -9.48,2.37l-4.74 0c-5.07,1.64 -10.33,1.91 -15.4,3.55l-54.49 9.48c-4.69,0.1 -14.69,2.17 -18.95,3.55l-4.74 0c-5.07,1.64 -10.33,1.91 -15.4,3.56l-74.63 13.02c-4.26,0.09 -9.24,1.14 -13.03,2.37l-4.74 0c-5.07,1.64 -10.33,1.91 -15.4,3.55l-54.48 9.48c-4.69,0.1 -14.69,2.17 -18.95,3.55l-4.74 0c-5.07,1.64 -10.33,1.91 -15.4,3.56l-72.25 11.84c-5.07,1.64 -10.33,1.91 -15.4,3.55l-4.74 0c-5.06,1.64 -10.33,1.91 -15.4,3.56l-4.74 0c-5.07,1.64 -10.33,1.91 -15.4,3.55l-92.39 15.4c-5.06,1.64 -10.33,1.91 -15.4,3.55l-4.74 0c-5.07,1.64 -10.33,1.91 -15.4,3.56l-34.35 5.92c-13.95,2.36 -27.37,4.75 -41.46,2.37l-24.87 -5.92c-11.44,-0.25 -104.07,-20.59 -117.26,-24.87 -5.19,-0.11 -11.88,-2.03 -16.58,-3.55 -6.62,-0.15 -38.19,-7.26 -45.01,-9.48 -5.19,-0.11 -11.88,-2.03 -16.58,-3.55 -10.41,-0.23 -106.2,-20.9 -118.45,-24.87l-22.5 0c-3.68,1.19 -5.8,1.18 -9.48,2.37l-97.13 16.58c-3.68,1.19 -5.8,1.18 -9.48,2.37l-73.44 13.03c-4.69,0.1 -14.69,2.17 -18.95,3.56l-37.9 5.92c-5.07,1.64 -10.33,1.91 -15.4,3.55l-34.35 5.92c-4.69,0.1 -14.69,2.17 -18.95,3.56l-73.44 13.03c-4.69,0.1 -14.69,2.17 -18.95,3.55l-34.35 5.92c-4.69,0.1 -14.69,2.17 -18.95,3.56l-73.44 13.03c-4.26,0.09 -9.24,1.14 -13.03,2.37l-43.83 7.11c-5.06,1.64 -10.33,1.91 -15.4,3.55l-34.35 5.93c-4.69,0.1 -14.69,2.17 -18.95,3.55l-113.71 20.13c-4.45,0.09 -7.94,1.1 -11.85,2.37l-4.74 0c-3.68,1.19 -5.8,1.18 -9.48,2.37l-40.28 7.11c-4.69,0.1 -14.69,2.17 -18.95,3.55l-4.74 0c-8.67,1.37 -28.48,5.6 -34.35,9.48 -8.11,5.35 -15.08,16.55 -16.58,26.06l0 684.52c-1.69,10.02 -8.85,18.05 -17.77,22.5 -13.14,6.11 -42.72,12.87 -58.04,16.69 -17.72,4.43 -40.7,10.31 -58.04,16.07 -36.76,12.22 -78.37,20.36 -116.08,31.61 -38,11.34 -77.71,21.46 -116.08,31.65 -38.56,10.25 -77.46,21.97 -116.08,31.76 -77.1,19.54 -155.45,42.07 -232.16,63.67 -77.54,21.83 -156.34,40.62 -233.35,63.59 -38.34,11.44 -77.92,20.05 -116.08,31.55 -37.1,11.18 -78.55,22.49 -116.08,31.86 -155.23,38.76 -309.3,87.33 -464.32,126.72 -30.7,7.8 -221.44,62.89 -233.34,62.89l-1935.46 0c-10.48,0 -100.08,-25.92 -116.08,-30.79 -37.44,-11.4 -79.16,-22.41 -117.27,-32.09 -77.8,-19.77 -155.7,-43.2 -233.34,-63.73 -155.86,-41.22 -312.73,-83.78 -467.87,-127.61 -38.68,-10.93 -77.65,-20.15 -116.08,-31.62 -38.18,-11.39 -79.94,-19.53 -117.26,-31.94 -36.86,-12.26 -78.5,-20.26 -116.08,-31.58 -38.53,-11.61 -78.86,-20.26 -117.26,-31.98 -38.04,-11.6 -77.58,-20.53 -116.08,-31.54l-234.53 -64.28c-26.01,-7.01 -98.55,-23.4 -117.26,-35.63 -4.43,-3.75 -8.49,-9.54 -9.48,-15.4l0 -682.15c-1.34,-8.47 -3.87,-16.86 -9.48,-23.69 -7.56,-9.2 -19.83,-12.36 -30.8,-14.21l-33.17 -5.92c-4.69,-0.1 -14.69,-2.17 -18.95,-3.56l-37.91 -5.92c-5.06,-1.64 -10.33,-1.91 -15.4,-3.55l-20.14 -3.55c-4.26,-0.09 -9.24,-1.14 -13.03,-2.37l-112.53 -20.13c-4.26,-0.09 -9.24,-1.14 -13.03,-2.37l-40.27 -7.1c-4.69,-0.1 -14.69,-2.17 -18.95,-3.56l-71.07 -11.84c-5.07,-1.64 -10.33,-1.91 -15.4,-3.55l-20.14 -3.56c-4.69,-0.1 -14.69,-2.17 -18.95,-3.55l-71.07 -11.84c-5.07,-1.64 -10.33,-1.91 -15.4,-3.56l-73.44 -13.03c-4.69,-0.1 -14.69,-2.17 -18.95,-3.55l-73.44 -13.03c-4.27,-0.09 -9.24,-1.14 -13.03,-2.37l-112.52 -20.13c-4.27,-0.09 -9.24,-1.14 -13.03,-2.37l-20.14 -3.56c-10.52,-1.78 -24.97,-4.04 -35.53,-2.37 -11.19,3.63 -25.29,4.59 -36.72,8.29 -5.19,0.11 -11.88,2.03 -16.58,3.55 -6.62,0.15 -38.2,7.26 -45.01,9.47l-45.01 9.48c-5.19,0.11 -11.88,2.03 -16.58,3.55 -8.09,0.18 -52.99,10.24 -61.59,13.03 -5.48,0.12 -23.11,4.2 -28.43,5.92 -5.19,0.11 -11.88,2.03 -16.58,3.56 -8.48,0.19 -64.19,12.4 -73.44,15.39l-21.32 1.19 -21.32 -3.55c-5.07,-1.64 -10.33,-1.91 -15.4,-3.56l-4.74 0c-3.68,-1.19 -5.8,-1.17 -9.48,-2.37l-78.18 -13.03c-5.06,-1.64 -10.33,-1.91 -15.4,-3.56l-4.74 0c-5.07,-1.64 -10.33,-1.91 -15.4,-3.55l-74.62 -13.03c-4.26,-0.09 -9.24,-1.14 -13.03,-2.37l-4.74 0c-5.06,-1.64 -10.33,-1.91 -15.4,-3.55l-4.74 0c-5.07,-1.64 -10.33,-1.91 -15.4,-3.56l-54.48 -9.47c-4.69,-0.1 -14.69,-2.17 -18.95,-3.55l-4.74 0c-3.68,-1.19 -5.8,-1.18 -9.48,-2.37l-74.62 -13.03c-4.69,-0.1 -14.69,-2.17 -18.95,-3.55l-4.74 0c-5.06,-1.64 -10.33,-1.91 -15.4,-3.56l-72.25 -11.84c-5.07,-1.64 -10.33,-1.91 -15.4,-3.55l-4.74 0c-5.06,-1.64 -10.33,-1.91 -15.4,-3.56l-4.74 0c-5.06,-1.64 -10.33,-1.91 -15.4,-3.55l-4.74 0c-3.68,-1.19 -5.8,-1.18 -9.48,-2.37l-58.04 -9.47c-5.07,-1.64 -10.33,-1.91 -15.4,-3.56l-4.74 0c-5.06,-1.64 -10.33,-1.91 -15.4,-3.55l-4.74 0c-11.73,-3.8 -23.3,-3.87 -35.53,-9.15 -20.09,-8.67 -36.13,-20.34 -49.75,-37.04 -13.33,-16.34 -21.7,-36.78 -24.87,-56.85l0 -10.66c-1.42,-4.39 -1.19,-3.39 -1.19,-8.29l41.46 -238.04c0.09,-4.26 1.14,-9.24 2.37,-13.03l0 -4.74c1.64,-5.06 1.91,-10.33 3.56,-15.4l0 -4.74c1.64,-5.06 1.91,-10.33 3.55,-15.39l0 -4.74c1.65,-5.06 1.91,-10.33 3.56,-15.39l31.98 -181.2c0.09,-4.26 1.14,-9.24 2.37,-13.03l0 -4.74c1.64,-5.07 1.91,-10.33 3.56,-15.4l5.92 -39.08c1.57,-4.83 2.05,-9.56 3.55,-14.21l0 -4.74c1.65,-5.06 1.91,-10.33 3.56,-15.39l13.03 -74.61c0.09,-4.26 1.14,-9.24 2.37,-13.03l0 -4.74c1.64,-5.07 1.91,-10.33 3.56,-15.4l7.11 -40.27c0.09,-4.26 1.14,-9.24 2.37,-13.02l0 -4.74c1.64,-5.06 1.91,-10.33 3.55,-15.39l5.93 -34.35c0.1,-4.69 2.17,-14.68 3.55,-18.95l0 -4.74c1.64,-5.06 1.91,-10.33 3.56,-15.4l15.4 -92.37c1.64,-5.06 1.91,-10.33 3.56,-15.39l7.11 -40.27c0.09,-4.26 1.14,-9.24 2.37,-13.03l0 -4.74c1.65,-5.06 1.91,-10.33 3.56,-15.4l5.92 -34.34c0.1,-4.69 2.17,-14.69 3.56,-18.95l0 -4.74c1.64,-5.07 1.91,-10.33 3.55,-15.4l5.93 -34.34c0.1,-4.69 2.17,-14.69 3.55,-18.95l5.93 -39.08c1.64,-5.06 1.91,-10.33 3.55,-15.4l5.93 -37.9c1.64,-5.06 1.91,-10.33 3.55,-15.39l0 -4.74c1.64,-5.07 1.91,-10.33 3.56,-15.4l5.92 -34.35c0.1,-4.69 2.17,-14.68 3.56,-18.95l0 -4.74c1.64,-5.06 1.91,-10.33 3.55,-15.39l5.92 -34.35c0.1,-4.69 2.17,-14.68 3.56,-18.95l0 -4.74c1.64,-5.06 1.91,-10.33 3.56,-15.4l0 -4.74c1.19,-3.68 1.17,-5.8 2.37,-9.47l9.48 -58.03c1.64,-5.06 1.91,-10.33 3.56,-15.4l0 -4.74c1.64,-5.06 1.91,-10.33 3.55,-15.39l5.93 -34.35c0.1,-4.69 2.17,-14.68 3.55,-18.95l0 -4.74c1.64,-5.06 1.91,-10.33 3.56,-15.4l5.92 -34.34c0.1,-4.69 2.17,-14.69 3.56,-18.95l0 -4.74c1.64,-5.07 1.91,-10.33 3.55,-15.4l5.93 -34.35c0.1,-4.69 2.17,-14.68 3.55,-18.94l0 -4.74c1.19,-3.68 1.18,-5.8 2.37,-9.47l0 -4.74c1.64,-5.07 1.91,-10.33 3.56,-15.4l3.55 -20.13c0.09,-4.26 1.14,-9.24 2.37,-13.03l0 -4.74c1.64,-5.06 1.91,-10.33 3.55,-15.4l0 -4.74c1.65,-5.06 1.91,-10.33 3.56,-15.39l0 -4.74c1.64,-5.06 1.91,-10.33 3.56,-15.39l5.92 -34.35c0.1,-4.69 2.17,-14.68 3.55,-18.95l9.48 -54.48c0.1,-4.69 2.17,-14.68 3.56,-18.95l11.85 -72.24c1.64,-5.07 1.91,-10.33 3.55,-15.4l0 -4.74c1.64,-5.06 1.91,-10.33 3.56,-15.4l9.48 -54.48c0.1,-4.69 2.17,-14.68 3.55,-18.95l0 -4.74c1.19,-3.68 1.18,-5.8 2.37,-9.48 0.49,-22.65 12.51,-36.45 20.14,-54.48 5.19,-7.8 20.62,-23.23 28.43,-28.42 11.87,-7.9 34.29,-17.88 48.57,-20.13l15.4 -1.19c210.3,0 2404.85,-1.26 2412.81,0l28.43 4.74c5.06,1.64 10.33,1.91 15.4,3.56l4.74 0c5.06,1.64 10.33,1.91 15.4,3.55l37.9 5.92c5.07,1.64 10.33,1.91 15.4,3.56l34.35 5.92c4.69,0.1 14.69,2.17 18.95,3.55l4.74 0c5.06,1.64 10.33,1.91 15.4,3.55l37.9 5.93c5.07,1.64 10.33,1.91 15.4,3.55l34.35 5.92c4.69,0.1 14.69,2.17 18.95,3.55l78.18 13.03c3.68,1.19 5.8,1.18 9.48,2.37l40.27 7.11c4.27,0.09 9.24,1.14 13.03,2.37l4.74 0c5.07,1.65 10.33,1.91 15.4,3.56l40.28 7.11c4.26,0.09 9.24,1.14 13.03,2.37l40.27 7.11c4.27,0.09 9.24,1.14 13.03,2.37l4.74 0c5.07,1.64 10.33,1.91 15.4,3.55l4.74 0c5.06,1.64 10.33,1.91 15.4,3.56l4.74 0c5.06,1.64 10.33,1.91 15.4,3.55l34.35 5.92c4.69,0.1 14.69,2.17 18.95,3.56l4.74 0c3.68,1.19 5.8,1.17 9.48,2.37 18.58,3.15 31.44,4.81 40.27,22.5 12.34,26.54 24.83,64.03 40.27,87.64 6.55,7.97 17.7,12.59 27.24,14.21l30.8 4.74c5.06,1.64 10.33,1.91 15.4,3.55l73.44 13.03c4.26,0.09 9.24,1.14 13.03,2.37l73.44 13.03c4.69,0.1 14.69,2.17 18.95,3.55l4.74 0c5.07,1.64 10.33,1.91 15.4,3.55l34.35 5.93c4.69,0.1 14.69,2.17 18.95,3.55l34.35 5.92c4.69,0.1 14.69,2.17 18.95,3.55l37.9 5.92c5.07,1.65 10.33,1.91 15.4,3.56l34.35 5.92c4.69,0.1 14.69,2.17 18.95,3.55l82.92 14.21c10.99,0 22.52,-5.17 29.61,-13.03 6.39,-7.07 9.13,-17.04 10.66,-26.06 0.09,-4.26 1.14,-9.24 2.37,-13.03l0 -4.74c1.64,-5.06 1.91,-10.33 3.55,-15.39l9.48 -54.48c0.1,-4.69 2.17,-14.68 3.56,-18.95l0 -4.74c1.64,-5.06 1.91,-10.33 3.55,-15.39l11.85 -72.24c1.64,-5.06 1.91,-10.33 3.55,-15.39l0 -4.74c1.65,-5.06 1.91,-10.33 3.56,-15.39l0 -4.74c1.64,-5.07 1.91,-10.33 3.56,-15.4l11.84 -72.24c1.64,-5.07 1.91,-10.33 3.56,-15.4l0 -4.74c1.64,-5.06 1.91,-10.33 3.55,-15.4l9.48 -54.48c0.1,-4.69 2.17,-14.69 3.56,-18.95l11.84 -72.24c1.65,-5.06 1.91,-10.33 3.56,-15.39l0 -4.74c1.64,-5.07 1.91,-10.33 3.56,-15.4l5.92 -34.34c2.79,-16.49 3.3,-34.3 14.21,-47.37 7.45,-7.29 18.1,-13.03 28.43,-13.03 5.7,0 7.33,1.19 13.03,1.19z"/>
  </g>
 </g>
</svg>
