<?xml version="1.0" standalone="no"?>
 <!DOCTYPE svg PUBLIC "-//W3C//DTD SVG 1.1//EN" 
 "http://www.w3.org/Graphics/SVG/1.1/DTD/svg11.dtd"> 
<svg
  xmlns:svg="http://www.w3.org/2000/svg"
  xmlns="http://www.w3.org/2000/svg"
  xmlns:xlink="http://www.w3.org/1999/xlink"
  version="1.1"
  width="266.5476mm" height="138.4808mm" viewBox="0.0000 0.0000 266.5476 138.4808">
<title>SVG Picture created as pcb-top-plate-brd.svg date 2022/12/14 21:37:14 </title>
  <desc>Picture generated by PCBNEW </desc>
<g style="fill:#000000; fill-opacity:1.0000;stroke:#000000; stroke-opacity:1.0000;
stroke-linecap:round; stroke-linejoin:round;"
 transform="translate(0 0) scale(1 1)">
</g>
<g style="fill:#000000; fill-opacity:0.0; 
stroke:#000000; stroke-width:0.0000; stroke-opacity:1; 
stroke-linecap:round; stroke-linejoin:round;">
</g>
<g style="fill:#840084; fill-opacity:0.0; 
stroke:#840084; stroke-width:0.0000; stroke-opacity:1; 
stroke-linecap:round; stroke-linejoin:round;">
</g>
<g style="fill:#840084; fill-opacity:0.0; 
stroke:#840084; stroke-width:0.1200; stroke-opacity:1; 
stroke-linecap:round; stroke-linejoin:round;">
<g transform="rotate(-10.000000 205.6200 83.0400)">
<text x="205.6200" y="83.4650"
textLength="13.1890" font-size="1.1333" lengthAdjust="spacingAndGlyphs"
text-anchor="start" opacity="0">REVIUNG41 rev1.2GH</text>
</g>
<g class="stroked-text"><desc>REVIUNG41 rev1.2GH</desc>
<path d="M206.3519 83.2280
L206.0026 82.8786
" />
<path d="M205.8735 83.3124
L205.7259 82.4753
" />
<path d="M205.7259 82.4753
L206.0448 82.4191
" />
<path d="M206.0448 82.4191
L206.1316 82.4449
" />
<path d="M206.1316 82.4449
L206.1785 82.4777
" />
<path d="M206.1785 82.4777
L206.2324 82.5504
" />
<path d="M206.2324 82.5504
L206.2535 82.6700
" />
<path d="M206.2535 82.6700
L206.2277 82.7567
" />
<path d="M206.2277 82.7567
L206.1948 82.8036
" />
<path d="M206.1948 82.8036
L206.1221 82.8575
" />
<path d="M206.1221 82.8575
L205.8032 82.9138
" />
<path d="M206.6333 82.7263
L206.9123 82.6771
" />
<path d="M207.1092 83.0945
L206.7106 83.1648
" />
<path d="M206.7106 83.1648
L206.5630 82.3277
" />
<path d="M206.5630 82.3277
L206.9616 82.2574
" />
<path d="M207.2008 82.2152
L207.6274 83.0031
" />
<path d="M207.6274 83.0031
L207.7589 82.1168
" />
<path d="M208.1855 82.9047
L208.0379 82.0676
" />
<path d="M208.4365 81.9974
L208.5560 82.6750
" />
<path d="M208.5560 82.6750
L208.6099 82.7477
" />
<path d="M208.6099 82.7477
L208.6568 82.7805
" />
<path d="M208.6568 82.7805
L208.7435 82.8063
" />
<path d="M208.7435 82.8063
L208.9030 82.7782
" />
<path d="M208.9030 82.7782
L208.9757 82.7243
" />
<path d="M208.9757 82.7243
L209.0085 82.6774
" />
<path d="M209.0085 82.6774
L209.0343 82.5907
" />
<path d="M209.0343 82.5907
L208.9148 81.9130
" />
<path d="M209.4610 82.6798
L209.3134 81.8427
" />
<path d="M209.3134 81.8427
L209.9394 82.5955
" />
<path d="M209.9394 82.5955
L209.7918 81.7584
" />
<path d="M210.6359 81.6506
L210.5491 81.6248
" />
<path d="M210.5491 81.6248
L210.4296 81.6459
" />
<path d="M210.4296 81.6459
L210.3170 81.7069
" />
<path d="M210.3170 81.7069
L210.2513 81.8007
" />
<path d="M210.2513 81.8007
L210.2255 81.8874
" />
<path d="M210.2255 81.8874
L210.2138 82.0539
" />
<path d="M210.2138 82.0539
L210.2349 82.1735
" />
<path d="M210.2349 82.1735
L210.3028 82.3259
" />
<path d="M210.3028 82.3259
L210.3568 82.3986
" />
<path d="M210.3568 82.3986
L210.4505 82.4642
" />
<path d="M210.4505 82.4642
L210.5772 82.4830
" />
<path d="M210.5772 82.4830
L210.6569 82.4690
" />
<path d="M210.6569 82.4690
L210.7694 82.4080
" />
<path d="M210.7694 82.4080
L210.8023 82.3611
" />
<path d="M210.8023 82.3611
L210.7531 82.0821
" />
<path d="M210.7531 82.0821
L210.5936 82.1102
" />
<path d="M211.4354 81.7563
L211.5338 82.3143
" />
<path d="M211.1799 81.4725
L211.0860 82.1056
" />
<path d="M211.0860 82.1056
L211.6042 82.0142
" />
<path d="M212.4108 82.1597
L211.9324 82.2440
" />
<path d="M212.1716 82.2019
L212.0240 81.3648
" />
<path d="M212.0240 81.3648
L211.9654 81.4984
" />
<path d="M211.9654 81.4984
L211.8997 81.5922
" />
<path d="M211.8997 81.5922
L211.8270 81.6461
" />
<path d="M213.2718 82.0079
L213.1734 81.4498
" />
<path d="M213.2015 81.6093
L213.2273 81.5225
" />
<path d="M213.2273 81.5225
L213.2601 81.4756
" />
<path d="M213.2601 81.4756
L213.3328 81.4217
" />
<path d="M213.3328 81.4217
L213.4125 81.4076
" />
<path d="M214.1018 81.8204
L214.0291 81.8743
" />
<path d="M214.0291 81.8743
L213.8697 81.9024
" />
<path d="M213.8697 81.9024
L213.7829 81.8766
" />
<path d="M213.7829 81.8766
L213.7290 81.8039
" />
<path d="M213.7290 81.8039
L213.6728 81.4851
" />
<path d="M213.6728 81.4851
L213.6986 81.3983
" />
<path d="M213.6986 81.3983
L213.7713 81.3444
" />
<path d="M213.7713 81.3444
L213.9307 81.3163
" />
<path d="M213.9307 81.3163
L214.0175 81.3421
" />
<path d="M214.0175 81.3421
L214.0714 81.4148
" />
<path d="M214.0714 81.4148
L214.0855 81.4945
" />
<path d="M214.0855 81.4945
L213.7009 81.6445
" />
<path d="M214.3294 81.2460
L214.6271 81.7689
" />
<path d="M214.6271 81.7689
L214.7280 81.1757
" />
<path d="M215.5837 81.6002
L215.1054 81.6846
" />
<path d="M215.3446 81.6424
L215.1970 80.8053
" />
<path d="M215.1970 80.8053
L215.1383 80.9389
" />
<path d="M215.1383 80.9389
L215.0727 81.0327
" />
<path d="M215.0727 81.0327
L215.0000 81.0866
" />
<path d="M215.9284 81.4572
L215.9753 81.4901
" />
<path d="M215.9753 81.4901
L215.9425 81.5370
" />
<path d="M215.9425 81.5370
L215.8956 81.5041
" />
<path d="M215.8956 81.5041
L215.9284 81.4572
" />
<path d="M215.9284 81.4572
L215.9425 81.5370
" />
<path d="M216.1677 80.7163
L216.2005 80.6694
" />
<path d="M216.2005 80.6694
L216.2732 80.6155
" />
<path d="M216.2732 80.6155
L216.4725 80.5804
" />
<path d="M216.4725 80.5804
L216.5593 80.6062
" />
<path d="M216.5593 80.6062
L216.6062 80.6390
" />
<path d="M216.6062 80.6390
L216.6601 80.7117
" />
<path d="M216.6601 80.7117
L216.6741 80.7914
" />
<path d="M216.6741 80.7914
L216.6554 80.9181
" />
<path d="M216.6554 80.9181
L216.2614 81.4807
" />
<path d="M216.2614 81.4807
L216.7796 81.3894
" />
<path d="M217.4362 80.4516
L217.3495 80.4258
" />
<path d="M217.3495 80.4258
L217.2299 80.4468
" />
<path d="M217.2299 80.4468
L217.1173 80.5078
" />
<path d="M217.1173 80.5078
L217.0517 80.6016
" />
<path d="M217.0517 80.6016
L217.0259 80.6883
" />
<path d="M217.0259 80.6883
L217.0141 80.8548
" />
<path d="M217.0141 80.8548
L217.0352 80.9744
" />
<path d="M217.0352 80.9744
L217.1032 81.1268
" />
<path d="M217.1032 81.1268
L217.1571 81.1995
" />
<path d="M217.1571 81.1995
L217.2509 81.2652
" />
<path d="M217.2509 81.2652
L217.3775 81.2839
" />
<path d="M217.3775 81.2839
L217.4572 81.2699
" />
<path d="M217.4572 81.2699
L217.5698 81.2089
" />
<path d="M217.5698 81.2089
L217.6026 81.1620
" />
<path d="M217.6026 81.1620
L217.5534 80.8830
" />
<path d="M217.5534 80.8830
L217.3940 80.9111
" />
<path d="M217.9754 81.1785
L217.8278 80.3414
" />
<path d="M217.8981 80.7400
L218.3764 80.6557
" />
<path d="M218.4537 81.0942
L218.3061 80.2571
" />
</g><g >
</g>
<g style="fill:#000000; fill-opacity:0.0; 
stroke:#000000; stroke-width:0.1200; stroke-opacity:1; 
stroke-linecap:round; stroke-linejoin:round;">
</g>
<g style="fill:#000000; fill-opacity:1.0000; 
stroke:#000000; stroke-width:0.0000; stroke-opacity:1; 
stroke-linecap:round; stroke-linejoin:round;">
<circle cx="133.3400" cy="89.3700" r="2.2510" /> 
</g>
<g style="fill:#000000; fill-opacity:1.0000; 
stroke:#000000; stroke-width:0.0212; stroke-opacity:1; 
stroke-linecap:round; stroke-linejoin:round;">
</g>
<g >
</g>
<g style="fill:#000000; fill-opacity:1.0000; 
stroke:#000000; stroke-width:0.0212; stroke-opacity:1; 
stroke-linecap:round; stroke-linejoin:round;">
</g>
<g style="fill:#000000; fill-opacity:1.0000; 
stroke:#000000; stroke-width:0.0000; stroke-opacity:1; 
stroke-linecap:round; stroke-linejoin:round;">
<circle cx="35.5900" cy="37.4600" r="1.1510" /> 
</g>
<g style="fill:#000000; fill-opacity:1.0000; 
stroke:#000000; stroke-width:0.0212; stroke-opacity:1; 
stroke-linecap:round; stroke-linejoin:round;">
</g>
<g >
</g>
<g style="fill:#000000; fill-opacity:1.0000; 
stroke:#000000; stroke-width:0.0212; stroke-opacity:1; 
stroke-linecap:round; stroke-linejoin:round;">
</g>
<g style="fill:#000000; fill-opacity:1.0000; 
stroke:#000000; stroke-width:0.0000; stroke-opacity:1; 
stroke-linecap:round; stroke-linejoin:round;">
<circle cx="28.7400" cy="75.1200" r="1.1510" /> 
</g>
<g style="fill:#000000; fill-opacity:1.0000; 
stroke:#000000; stroke-width:0.0212; stroke-opacity:1; 
stroke-linecap:round; stroke-linejoin:round;">
</g>
<g >
</g>
<g style="fill:#000000; fill-opacity:1.0000; 
stroke:#000000; stroke-width:0.0212; stroke-opacity:1; 
stroke-linecap:round; stroke-linejoin:round;">
</g>
<g style="fill:#000000; fill-opacity:1.0000; 
stroke:#000000; stroke-width:0.0000; stroke-opacity:1; 
stroke-linecap:round; stroke-linejoin:round;">
<circle cx="71.0200" cy="55.9600" r="1.1510" /> 
</g>
<g style="fill:#000000; fill-opacity:1.0000; 
stroke:#000000; stroke-width:0.0212; stroke-opacity:1; 
stroke-linecap:round; stroke-linejoin:round;">
</g>
<g >
</g>
<g style="fill:#000000; fill-opacity:1.0000; 
stroke:#000000; stroke-width:0.0212; stroke-opacity:1; 
stroke-linecap:round; stroke-linejoin:round;">
</g>
<g style="fill:#000000; fill-opacity:1.0000; 
stroke:#000000; stroke-width:0.0000; stroke-opacity:1; 
stroke-linecap:round; stroke-linejoin:round;">
<circle cx="111.2300" cy="47.3600" r="1.1510" /> 
</g>
<g style="fill:#000000; fill-opacity:1.0000; 
stroke:#000000; stroke-width:0.0212; stroke-opacity:1; 
stroke-linecap:round; stroke-linejoin:round;">
</g>
<g >
</g>
<g style="fill:#000000; fill-opacity:1.0000; 
stroke:#000000; stroke-width:0.0212; stroke-opacity:1; 
stroke-linecap:round; stroke-linejoin:round;">
</g>
<g style="fill:#000000; fill-opacity:1.0000; 
stroke:#000000; stroke-width:0.0000; stroke-opacity:1; 
stroke-linecap:round; stroke-linejoin:round;">
<circle cx="87.4200" cy="86.3900" r="1.1510" /> 
</g>
<g style="fill:#000000; fill-opacity:1.0000; 
stroke:#000000; stroke-width:0.0212; stroke-opacity:1; 
stroke-linecap:round; stroke-linejoin:round;">
</g>
<g >
</g>
<g style="fill:#000000; fill-opacity:1.0000; 
stroke:#000000; stroke-width:0.0212; stroke-opacity:1; 
stroke-linecap:round; stroke-linejoin:round;">
</g>
<g style="fill:#000000; fill-opacity:1.0000; 
stroke:#000000; stroke-width:0.0000; stroke-opacity:1; 
stroke-linecap:round; stroke-linejoin:round;">
<circle cx="155.4500" cy="47.3500" r="1.1510" /> 
</g>
<g style="fill:#000000; fill-opacity:1.0000; 
stroke:#000000; stroke-width:0.0212; stroke-opacity:1; 
stroke-linecap:round; stroke-linejoin:round;">
</g>
<g >
</g>
<g style="fill:#000000; fill-opacity:1.0000; 
stroke:#000000; stroke-width:0.0212; stroke-opacity:1; 
stroke-linecap:round; stroke-linejoin:round;">
</g>
<g style="fill:#000000; fill-opacity:1.0000; 
stroke:#000000; stroke-width:0.0000; stroke-opacity:1; 
stroke-linecap:round; stroke-linejoin:round;">
<circle cx="179.1900" cy="86.4000" r="1.1510" /> 
</g>
<g style="fill:#000000; fill-opacity:1.0000; 
stroke:#000000; stroke-width:0.0212; stroke-opacity:1; 
stroke-linecap:round; stroke-linejoin:round;">
</g>
<g >
</g>
<g style="fill:#000000; fill-opacity:1.0000; 
stroke:#000000; stroke-width:0.0212; stroke-opacity:1; 
stroke-linecap:round; stroke-linejoin:round;">
</g>
<g style="fill:#000000; fill-opacity:1.0000; 
stroke:#000000; stroke-width:0.0000; stroke-opacity:1; 
stroke-linecap:round; stroke-linejoin:round;">
<circle cx="195.6600" cy="55.9600" r="1.1510" /> 
</g>
<g style="fill:#000000; fill-opacity:1.0000; 
stroke:#000000; stroke-width:0.0212; stroke-opacity:1; 
stroke-linecap:round; stroke-linejoin:round;">
</g>
<g >
</g>
<g style="fill:#000000; fill-opacity:1.0000; 
stroke:#000000; stroke-width:0.0212; stroke-opacity:1; 
stroke-linecap:round; stroke-linejoin:round;">
</g>
<g style="fill:#000000; fill-opacity:1.0000; 
stroke:#000000; stroke-width:0.0000; stroke-opacity:1; 
stroke-linecap:round; stroke-linejoin:round;">
<circle cx="231.0800" cy="37.4500" r="1.1510" /> 
</g>
<g style="fill:#000000; fill-opacity:1.0000; 
stroke:#000000; stroke-width:0.0212; stroke-opacity:1; 
stroke-linecap:round; stroke-linejoin:round;">
</g>
<g >
</g>
<g style="fill:#000000; fill-opacity:1.0000; 
stroke:#000000; stroke-width:0.0212; stroke-opacity:1; 
stroke-linecap:round; stroke-linejoin:round;">
</g>
<g style="fill:#000000; fill-opacity:1.0000; 
stroke:#000000; stroke-width:0.0000; stroke-opacity:1; 
stroke-linecap:round; stroke-linejoin:round;">
<circle cx="237.9400" cy="75.1200" r="1.1510" /> 
</g>
<g style="fill:#000000; fill-opacity:1.0000; 
stroke:#000000; stroke-width:0.0212; stroke-opacity:1; 
stroke-linecap:round; stroke-linejoin:round;">
</g>
<g >
</g>
<g style="fill:#000000; fill-opacity:1.0000; 
stroke:#000000; stroke-width:0.0212; stroke-opacity:1; 
stroke-linecap:round; stroke-linejoin:round;">
</g>
<g style="fill:#000000; fill-opacity:1.0000; 
stroke:#000000; stroke-width:0.0000; stroke-opacity:1; 
stroke-linecap:round; stroke-linejoin:round;">
<circle cx="133.2900" cy="51.7700" r="1.2510" /> 
</g>
<g style="fill:#000000; fill-opacity:1.0000; 
stroke:#000000; stroke-width:0.0212; stroke-opacity:1; 
stroke-linecap:round; stroke-linejoin:round;">
</g>
<g >
</g>
<g style="fill:#000000; fill-opacity:1.0000; 
stroke:#000000; stroke-width:0.0212; stroke-opacity:1; 
stroke-linecap:round; stroke-linejoin:round;">
</g>
<g style="fill:#000000; fill-opacity:1.0000; 
stroke:#000000; stroke-width:0.0000; stroke-opacity:1; 
stroke-linecap:round; stroke-linejoin:round;">
<circle cx="130.6200" cy="54.5200" r="1.2510" /> 
</g>
<g style="fill:#000000; fill-opacity:1.0000; 
stroke:#000000; stroke-width:0.0212; stroke-opacity:1; 
stroke-linecap:round; stroke-linejoin:round;">
</g>
<g >
</g>
<g style="fill:#000000; fill-opacity:1.0000; 
stroke:#000000; stroke-width:0.0212; stroke-opacity:1; 
stroke-linecap:round; stroke-linejoin:round;">
</g>
<g style="fill:#000000; fill-opacity:1.0000; 
stroke:#000000; stroke-width:0.0000; stroke-opacity:1; 
stroke-linecap:round; stroke-linejoin:round;">
<circle cx="135.9600" cy="54.5200" r="1.2510" /> 
</g>
<g style="fill:#000000; fill-opacity:1.0000; 
stroke:#000000; stroke-width:0.0212; stroke-opacity:1; 
stroke-linecap:round; stroke-linejoin:round;">
</g>
<g >
</g>
<g style="fill:#000000; fill-opacity:1.0000; 
stroke:#000000; stroke-width:0.0212; stroke-opacity:1; 
stroke-linecap:round; stroke-linejoin:round;">
</g>
<g style="fill:#000000; fill-opacity:1.0000; 
stroke:#000000; stroke-width:0.0000; stroke-opacity:1; 
stroke-linecap:round; stroke-linejoin:round;">
<circle cx="133.3000" cy="57.2800" r="1.2510" /> 
</g>
<g style="fill:#000000; fill-opacity:1.0000; 
stroke:#000000; stroke-width:0.0212; stroke-opacity:1; 
stroke-linecap:round; stroke-linejoin:round;">
</g>
<g >
</g>
<g style="fill:#000000; fill-opacity:1.0000; 
stroke:#000000; stroke-width:0.0212; stroke-opacity:1; 
stroke-linecap:round; stroke-linejoin:round;">
</g>
<g style="fill:#000000; fill-opacity:1.0000; 
stroke:#000000; stroke-width:0.0000; stroke-opacity:1; 
stroke-linecap:round; stroke-linejoin:round;">
<circle cx="130.6200" cy="60.0200" r="1.2510" /> 
</g>
<g style="fill:#000000; fill-opacity:1.0000; 
stroke:#000000; stroke-width:0.0212; stroke-opacity:1; 
stroke-linecap:round; stroke-linejoin:round;">
</g>
<g >
</g>
<g style="fill:#000000; fill-opacity:1.0000; 
stroke:#000000; stroke-width:0.0212; stroke-opacity:1; 
stroke-linecap:round; stroke-linejoin:round;">
</g>
<g style="fill:#000000; fill-opacity:1.0000; 
stroke:#000000; stroke-width:0.0000; stroke-opacity:1; 
stroke-linecap:round; stroke-linejoin:round;">
<circle cx="135.9600" cy="60.0200" r="1.2510" /> 
</g>
<g style="fill:#000000; fill-opacity:1.0000; 
stroke:#000000; stroke-width:0.0212; stroke-opacity:1; 
stroke-linecap:round; stroke-linejoin:round;">
</g>
<g >
</g>
<g style="fill:#000000; fill-opacity:1.0000; 
stroke:#000000; stroke-width:0.0212; stroke-opacity:1; 
stroke-linecap:round; stroke-linejoin:round;">
</g>
<g style="fill:#000000; fill-opacity:1.0000; 
stroke:#000000; stroke-width:0.0000; stroke-opacity:1; 
stroke-linecap:round; stroke-linejoin:round;">
<circle cx="127.9800" cy="62.7800" r="1.2510" /> 
</g>
<g style="fill:#000000; fill-opacity:1.0000; 
stroke:#000000; stroke-width:0.0212; stroke-opacity:1; 
stroke-linecap:round; stroke-linejoin:round;">
</g>
<g >
</g>
<g style="fill:#000000; fill-opacity:1.0000; 
stroke:#000000; stroke-width:0.0212; stroke-opacity:1; 
stroke-linecap:round; stroke-linejoin:round;">
</g>
<g style="fill:#000000; fill-opacity:1.0000; 
stroke:#000000; stroke-width:0.0000; stroke-opacity:1; 
stroke-linecap:round; stroke-linejoin:round;">
<circle cx="133.3000" cy="62.7800" r="1.2510" /> 
</g>
<g style="fill:#000000; fill-opacity:1.0000; 
stroke:#000000; stroke-width:0.0212; stroke-opacity:1; 
stroke-linecap:round; stroke-linejoin:round;">
</g>
<g >
</g>
<g style="fill:#000000; fill-opacity:1.0000; 
stroke:#000000; stroke-width:0.0212; stroke-opacity:1; 
stroke-linecap:round; stroke-linejoin:round;">
</g>
<g style="fill:#000000; fill-opacity:1.0000; 
stroke:#000000; stroke-width:0.0000; stroke-opacity:1; 
stroke-linecap:round; stroke-linejoin:round;">
<circle cx="138.6100" cy="62.7800" r="1.2510" /> 
</g>
<g style="fill:#000000; fill-opacity:1.0000; 
stroke:#000000; stroke-width:0.0212; stroke-opacity:1; 
stroke-linecap:round; stroke-linejoin:round;">
</g>
<g >
</g>
<g style="fill:#000000; fill-opacity:1.0000; 
stroke:#000000; stroke-width:0.0212; stroke-opacity:1; 
stroke-linecap:round; stroke-linejoin:round;">
</g>
<g style="fill:#000000; fill-opacity:1.0000; 
stroke:#000000; stroke-width:0.0000; stroke-opacity:1; 
stroke-linecap:round; stroke-linejoin:round;">
<circle cx="130.6200" cy="65.5200" r="1.2510" /> 
</g>
<g style="fill:#000000; fill-opacity:1.0000; 
stroke:#000000; stroke-width:0.0212; stroke-opacity:1; 
stroke-linecap:round; stroke-linejoin:round;">
</g>
<g >
</g>
<g style="fill:#000000; fill-opacity:1.0000; 
stroke:#000000; stroke-width:0.0212; stroke-opacity:1; 
stroke-linecap:round; stroke-linejoin:round;">
</g>
<g style="fill:#000000; fill-opacity:1.0000; 
stroke:#000000; stroke-width:0.0000; stroke-opacity:1; 
stroke-linecap:round; stroke-linejoin:round;">
<circle cx="135.9600" cy="65.5200" r="1.2510" /> 
</g>
<g style="fill:#000000; fill-opacity:1.0000; 
stroke:#000000; stroke-width:0.0212; stroke-opacity:1; 
stroke-linecap:round; stroke-linejoin:round;">
</g>
<g >
</g>
<g style="fill:#000000; fill-opacity:1.0000; 
stroke:#000000; stroke-width:0.0212; stroke-opacity:1; 
stroke-linecap:round; stroke-linejoin:round;">
</g>
<g style="fill:#000000; fill-opacity:1.0000; 
stroke:#000000; stroke-width:0.0000; stroke-opacity:1; 
stroke-linecap:round; stroke-linejoin:round;">
<circle cx="127.9800" cy="68.2800" r="1.2510" /> 
</g>
<g style="fill:#000000; fill-opacity:1.0000; 
stroke:#000000; stroke-width:0.0212; stroke-opacity:1; 
stroke-linecap:round; stroke-linejoin:round;">
</g>
<g >
</g>
<g style="fill:#000000; fill-opacity:1.0000; 
stroke:#000000; stroke-width:0.0212; stroke-opacity:1; 
stroke-linecap:round; stroke-linejoin:round;">
</g>
<g style="fill:#000000; fill-opacity:1.0000; 
stroke:#000000; stroke-width:0.0000; stroke-opacity:1; 
stroke-linecap:round; stroke-linejoin:round;">
<circle cx="133.2900" cy="68.2800" r="1.2510" /> 
</g>
<g style="fill:#000000; fill-opacity:1.0000; 
stroke:#000000; stroke-width:0.0212; stroke-opacity:1; 
stroke-linecap:round; stroke-linejoin:round;">
</g>
<g >
</g>
<g style="fill:#000000; fill-opacity:1.0000; 
stroke:#000000; stroke-width:0.0212; stroke-opacity:1; 
stroke-linecap:round; stroke-linejoin:round;">
</g>
<g style="fill:#000000; fill-opacity:1.0000; 
stroke:#000000; stroke-width:0.0000; stroke-opacity:1; 
stroke-linecap:round; stroke-linejoin:round;">
<circle cx="138.6100" cy="68.2800" r="1.2510" /> 
</g>
<g style="fill:#000000; fill-opacity:1.0000; 
stroke:#000000; stroke-width:0.0212; stroke-opacity:1; 
stroke-linecap:round; stroke-linejoin:round;">
</g>
<g >
</g>
<g style="fill:#000000; fill-opacity:1.0000; 
stroke:#000000; stroke-width:0.0212; stroke-opacity:1; 
stroke-linecap:round; stroke-linejoin:round;">
</g>
<g style="fill:#000000; fill-opacity:1.0000; 
stroke:#000000; stroke-width:0.0000; stroke-opacity:1; 
stroke-linecap:round; stroke-linejoin:round;">
<circle cx="130.6300" cy="71.0200" r="1.2510" /> 
</g>
<g style="fill:#000000; fill-opacity:1.0000; 
stroke:#000000; stroke-width:0.0212; stroke-opacity:1; 
stroke-linecap:round; stroke-linejoin:round;">
</g>
<g >
</g>
<g style="fill:#000000; fill-opacity:1.0000; 
stroke:#000000; stroke-width:0.0212; stroke-opacity:1; 
stroke-linecap:round; stroke-linejoin:round;">
</g>
<g style="fill:#000000; fill-opacity:1.0000; 
stroke:#000000; stroke-width:0.0000; stroke-opacity:1; 
stroke-linecap:round; stroke-linejoin:round;">
<circle cx="135.9600" cy="71.0200" r="1.2510" /> 
</g>
<g style="fill:#000000; fill-opacity:1.0000; 
stroke:#000000; stroke-width:0.0212; stroke-opacity:1; 
stroke-linecap:round; stroke-linejoin:round;">
</g>
<g >
</g>
<g style="fill:#000000; fill-opacity:1.0000; 
stroke:#000000; stroke-width:0.0212; stroke-opacity:1; 
stroke-linecap:round; stroke-linejoin:round;">
</g>
<g style="fill:#000000; fill-opacity:1.0000; 
stroke:#000000; stroke-width:0.0000; stroke-opacity:1; 
stroke-linecap:round; stroke-linejoin:round;">
<circle cx="127.9800" cy="73.7800" r="1.2510" /> 
</g>
<g style="fill:#000000; fill-opacity:1.0000; 
stroke:#000000; stroke-width:0.0212; stroke-opacity:1; 
stroke-linecap:round; stroke-linejoin:round;">
</g>
<g >
</g>
<g style="fill:#000000; fill-opacity:1.0000; 
stroke:#000000; stroke-width:0.0212; stroke-opacity:1; 
stroke-linecap:round; stroke-linejoin:round;">
</g>
<g style="fill:#000000; fill-opacity:1.0000; 
stroke:#000000; stroke-width:0.0000; stroke-opacity:1; 
stroke-linecap:round; stroke-linejoin:round;">
<circle cx="138.6100" cy="73.7800" r="1.2510" /> 
</g>
<g style="fill:#000000; fill-opacity:1.0000; 
stroke:#000000; stroke-width:0.0212; stroke-opacity:1; 
stroke-linecap:round; stroke-linejoin:round;">
</g>
<g >
</g>
<g style="fill:#000000; fill-opacity:1.0000; 
stroke:#000000; stroke-width:0.0212; stroke-opacity:1; 
stroke-linecap:round; stroke-linejoin:round;">
</g>
<g style="fill:#000000; fill-opacity:1.0000; 
stroke:#000000; stroke-width:0.0000; stroke-opacity:1; 
stroke-linecap:round; stroke-linejoin:round;">
<circle cx="130.6200" cy="76.5300" r="1.2510" /> 
</g>
<g style="fill:#000000; fill-opacity:1.0000; 
stroke:#000000; stroke-width:0.0212; stroke-opacity:1; 
stroke-linecap:round; stroke-linejoin:round;">
</g>
<g >
</g>
<g style="fill:#000000; fill-opacity:1.0000; 
stroke:#000000; stroke-width:0.0212; stroke-opacity:1; 
stroke-linecap:round; stroke-linejoin:round;">
</g>
<g style="fill:#000000; fill-opacity:1.0000; 
stroke:#000000; stroke-width:0.0000; stroke-opacity:1; 
stroke-linecap:round; stroke-linejoin:round;">
<circle cx="135.9600" cy="76.5200" r="1.2510" /> 
</g>
<g style="fill:#000000; fill-opacity:1.0000; 
stroke:#000000; stroke-width:0.0212; stroke-opacity:1; 
stroke-linecap:round; stroke-linejoin:round;">
</g>
<g >
</g>
<g style="fill:#000000; fill-opacity:1.0000; 
stroke:#000000; stroke-width:0.0212; stroke-opacity:1; 
stroke-linecap:round; stroke-linejoin:round;">
</g>
<g style="fill:#000000; fill-opacity:1.0000; 
stroke:#000000; stroke-width:0.0000; stroke-opacity:1; 
stroke-linecap:round; stroke-linejoin:round;">
<circle cx="127.9800" cy="79.2800" r="1.2510" /> 
</g>
<g style="fill:#000000; fill-opacity:1.0000; 
stroke:#000000; stroke-width:0.0212; stroke-opacity:1; 
stroke-linecap:round; stroke-linejoin:round;">
</g>
<g >
</g>
<g style="fill:#000000; fill-opacity:1.0000; 
stroke:#000000; stroke-width:0.0212; stroke-opacity:1; 
stroke-linecap:round; stroke-linejoin:round;">
</g>
<g style="fill:#000000; fill-opacity:1.0000; 
stroke:#000000; stroke-width:0.0000; stroke-opacity:1; 
stroke-linecap:round; stroke-linejoin:round;">
<circle cx="133.3000" cy="79.2800" r="1.2510" /> 
</g>
<g style="fill:#000000; fill-opacity:1.0000; 
stroke:#000000; stroke-width:0.0212; stroke-opacity:1; 
stroke-linecap:round; stroke-linejoin:round;">
</g>
<g >
</g>
<g style="fill:#000000; fill-opacity:1.0000; 
stroke:#000000; stroke-width:0.0212; stroke-opacity:1; 
stroke-linecap:round; stroke-linejoin:round;">
</g>
<g style="fill:#000000; fill-opacity:1.0000; 
stroke:#000000; stroke-width:0.0000; stroke-opacity:1; 
stroke-linecap:round; stroke-linejoin:round;">
<circle cx="138.6200" cy="79.2800" r="1.2510" /> 
</g>
<g style="fill:#000000; fill-opacity:1.0000; 
stroke:#000000; stroke-width:0.0212; stroke-opacity:1; 
stroke-linecap:round; stroke-linejoin:round;">
</g>
<g >
</g>
<g style="fill:#000000; fill-opacity:1.0000; 
stroke:#000000; stroke-width:0.0212; stroke-opacity:1; 
stroke-linecap:round; stroke-linejoin:round;">
</g>
<g style="fill:#000000; fill-opacity:1.0000; 
stroke:#000000; stroke-width:0.0000; stroke-opacity:1; 
stroke-linecap:round; stroke-linejoin:round;">
<circle cx="125.2800" cy="82.0300" r="1.2510" /> 
</g>
<g style="fill:#000000; fill-opacity:1.0000; 
stroke:#000000; stroke-width:0.0212; stroke-opacity:1; 
stroke-linecap:round; stroke-linejoin:round;">
</g>
<g >
</g>
<g style="fill:#000000; fill-opacity:1.0000; 
stroke:#000000; stroke-width:0.0212; stroke-opacity:1; 
stroke-linecap:round; stroke-linejoin:round;">
</g>
<g style="fill:#000000; fill-opacity:1.0000; 
stroke:#000000; stroke-width:0.0000; stroke-opacity:1; 
stroke-linecap:round; stroke-linejoin:round;">
<circle cx="130.6200" cy="82.0300" r="1.2510" /> 
</g>
<g style="fill:#000000; fill-opacity:1.0000; 
stroke:#000000; stroke-width:0.0212; stroke-opacity:1; 
stroke-linecap:round; stroke-linejoin:round;">
</g>
<g >
</g>
<g style="fill:#000000; fill-opacity:1.0000; 
stroke:#000000; stroke-width:0.0212; stroke-opacity:1; 
stroke-linecap:round; stroke-linejoin:round;">
</g>
<g style="fill:#000000; fill-opacity:1.0000; 
stroke:#000000; stroke-width:0.0000; stroke-opacity:1; 
stroke-linecap:round; stroke-linejoin:round;">
<circle cx="135.9700" cy="82.0300" r="1.2510" /> 
</g>
<g style="fill:#000000; fill-opacity:1.0000; 
stroke:#000000; stroke-width:0.0212; stroke-opacity:1; 
stroke-linecap:round; stroke-linejoin:round;">
</g>
<g >
</g>
<g style="fill:#000000; fill-opacity:1.0000; 
stroke:#000000; stroke-width:0.0212; stroke-opacity:1; 
stroke-linecap:round; stroke-linejoin:round;">
</g>
<g style="fill:#000000; fill-opacity:1.0000; 
stroke:#000000; stroke-width:0.0000; stroke-opacity:1; 
stroke-linecap:round; stroke-linejoin:round;">
<circle cx="141.2900" cy="82.0300" r="1.2510" /> 
</g>
<g style="fill:#000000; fill-opacity:1.0000; 
stroke:#000000; stroke-width:0.0212; stroke-opacity:1; 
stroke-linecap:round; stroke-linejoin:round;">
</g>
<g >
</g>
<g style="fill:#000000; fill-opacity:1.0000; 
stroke:#000000; stroke-width:0.0212; stroke-opacity:1; 
stroke-linecap:round; stroke-linejoin:round;">
</g>
<g style="fill:#000000; fill-opacity:1.0000; 
stroke:#000000; stroke-width:0.0000; stroke-opacity:1; 
stroke-linecap:round; stroke-linejoin:round;">
<circle cx="138.6200" cy="84.7900" r="1.2510" /> 
</g>
<g style="fill:#000000; fill-opacity:1.0000; 
stroke:#000000; stroke-width:0.0212; stroke-opacity:1; 
stroke-linecap:round; stroke-linejoin:round;">
</g>
<g >
</g>
<g style="fill:#000000; fill-opacity:1.0000; 
stroke:#000000; stroke-width:0.0212; stroke-opacity:1; 
stroke-linecap:round; stroke-linejoin:round;">
</g>
<g style="fill:#000000; fill-opacity:1.0000; 
stroke:#000000; stroke-width:0.0000; stroke-opacity:1; 
stroke-linecap:round; stroke-linejoin:round;">
<circle cx="133.2900" cy="84.7900" r="1.2510" /> 
</g>
<g style="fill:#000000; fill-opacity:1.0000; 
stroke:#000000; stroke-width:0.0212; stroke-opacity:1; 
stroke-linecap:round; stroke-linejoin:round;">
</g>
<g >
</g>
<g style="fill:#000000; fill-opacity:1.0000; 
stroke:#000000; stroke-width:0.0212; stroke-opacity:1; 
stroke-linecap:round; stroke-linejoin:round;">
</g>
<g style="fill:#000000; fill-opacity:1.0000; 
stroke:#000000; stroke-width:0.0000; stroke-opacity:1; 
stroke-linecap:round; stroke-linejoin:round;">
<circle cx="127.9800" cy="84.7800" r="1.2510" /> 
</g>
<g style="fill:#000000; fill-opacity:1.0000; 
stroke:#000000; stroke-width:0.0212; stroke-opacity:1; 
stroke-linecap:round; stroke-linejoin:round;">
</g>
<g >
</g>
<g style="fill:#000000; fill-opacity:1.0000; 
stroke:#000000; stroke-width:0.0212; stroke-opacity:1; 
stroke-linecap:round; stroke-linejoin:round;">
</g>
<g style="fill:#000000; fill-opacity:1.0000; 
stroke:#000000; stroke-width:0.0000; stroke-opacity:1; 
stroke-linecap:round; stroke-linejoin:round;">
<circle cx="129.1700" cy="33.7300" r="1.2510" /> 
</g>
<g style="fill:#000000; fill-opacity:1.0000; 
stroke:#000000; stroke-width:0.0212; stroke-opacity:1; 
stroke-linecap:round; stroke-linejoin:round;">
</g>
<g >
</g>
<g style="fill:#000000; fill-opacity:1.0000; 
stroke:#000000; stroke-width:0.0212; stroke-opacity:1; 
stroke-linecap:round; stroke-linejoin:round;">
</g>
<g style="fill:#000000; fill-opacity:1.0000; 
stroke:#000000; stroke-width:0.0000; stroke-opacity:1; 
stroke-linecap:round; stroke-linejoin:round;">
<circle cx="117.9200" cy="31.7200" r="1.2510" /> 
</g>
<g style="fill:#000000; fill-opacity:1.0000; 
stroke:#000000; stroke-width:0.0212; stroke-opacity:1; 
stroke-linecap:round; stroke-linejoin:round;">
</g>
<g >
</g>
<g style="fill:#000000; fill-opacity:1.0000; 
stroke:#000000; stroke-width:0.0212; stroke-opacity:1; 
stroke-linecap:round; stroke-linejoin:round;">
</g>
<g style="fill:#000000; fill-opacity:1.0000; 
stroke:#000000; stroke-width:0.0000; stroke-opacity:1; 
stroke-linecap:round; stroke-linejoin:round;">
<circle cx="155.4700" cy="19.2700" r="1.2510" /> 
</g>
<g style="fill:#000000; fill-opacity:1.0000; 
stroke:#000000; stroke-width:0.0212; stroke-opacity:1; 
stroke-linecap:round; stroke-linejoin:round;">
</g>
<g >
</g>
<g >
</g>
<g >
</g>
</g>
<g style="fill:#000000; fill-opacity:1.0000; 
stroke:#000000; stroke-width:0.0212; stroke-opacity:1; 
stroke-linecap:round; stroke-linejoin:round;">
</g>
<g style="fill:#C2C200; fill-opacity:1.0000; 
stroke:#C2C200; stroke-width:0.0212; stroke-opacity:1; 
stroke-linecap:round; stroke-linejoin:round;">
</g>
<g style="fill:#C2C200; fill-opacity:1.0000; 
stroke:#C2C200; stroke-width:0.1000; stroke-opacity:1; 
stroke-linecap:round; stroke-linejoin:round;">
</g>
<g style="fill:#C2C200; fill-opacity:0.0; 
stroke:#C2C200; stroke-width:0.1000; stroke-opacity:1; 
stroke-linecap:round; stroke-linejoin:round;">
<path d="M34.8556 56.2194
L37.2693 42.5306
" />
<path d="M99.2610,22.2243 C99.1278,21.9162 98.8489,21.6955 98.5184,21.6366" />
<path d="M67.0185 63.5661
L64.6048 77.2549
" />
<path d="M102.1260 83.8709
L88.4372 81.4572
" />
<path d="M213.2533 61.1523
L215.6670 74.8412
" />
<path d="M120.2788 90.6257
L106.5900 88.2120
" />
<path d="M126.0005 58.1763
L123.5868 71.8651
" />
<path d="M89.4150 106.4876
L93.0126 93.0612
" />
<path d="M187.2693 23.4934
L189.6830 37.1822
" />
<path d="M226.0057 23.7700
L228.4194 37.4588
" />
<path d="M175.7321 67.7683
L178.1458 81.4571
" />
<path d="M146.3042 90.6257
L143.8905 76.9368
" />
<path d="M126.3420,98.6267 C126.3420,98.6267 126.3420,97.9286 126.3420,97.9286" />
<path d="M228.7380,81.3558 C228.9919,81.3105 229.2521,81.3147 229.5044,81.3682" />
<path d="M91.7452 62.6966
L94.1589 49.0078
" />
<path d="M79.3116 23.4913
L93.0005 25.9050
" />
<path d="M19.4219,18.4332 C17.9666,18.4332 16.7212,19.4777 16.4678,20.9108" />
<path d="M174.8378 62.6965
L161.1490 65.1102
" />
<path d="M6.6586,76.3794 C6.3700,78.0119 7.4601,79.5691 9.0928,79.8564" />
<path d="M180.1965 63.4282
L193.8853 61.0145
" />
<path d="M102.8414 110.0851
L89.4150 106.4876
" />
<path d="M14.5930 61.4300
L28.2818 63.8437
" />
<path d="M164.4570 83.8708
L162.0433 70.1820
" />
</g>
<g style="fill:#C2C200; fill-opacity:0.0; 
stroke:#C2C200; stroke-width:0.0500; stroke-opacity:1; 
stroke-linecap:round; stroke-linejoin:round;">
<path d="M157.9097 117.0342
L204.9750 104.1764
" />
</g>
<g style="fill:#C2C200; fill-opacity:0.0; 
stroke:#C2C200; stroke-width:0.1000; stroke-opacity:1; 
stroke-linecap:round; stroke-linejoin:round;">
<path d="M113.0179,26.8772 C113.1474,26.8972 100.8310,24.7227 100.8310,24.7227" />
<path d="M215.6248 44.9443
L229.3136 42.5306
" />
<path d="M231.7274 56.2194
L218.0385 58.6331
" />
<path d="M177.1642 106.4890
L163.7378 110.0865
" />
<path d="M205.5850,103.5464 C205.5828,101.5864 205.5828,86.3260 205.5828,86.3260" />
<path d="M59.9457 23.6312
L73.6345 26.0449
" />
<path d="M126.3435,111.8340 C126.3435,111.8340 126.3435,109.8976 126.3435,109.8976" />
<path d="M237.9215,83.1534 C238.1723,83.2066 238.4309,83.2111 238.6834,83.1666" />
<path d="M106.4389 96.6588
L102.8414 110.0851
" />
<path d="M214.7305 39.8725
L212.3168 26.1837
" />
<path d="M231.6852 26.3225
L245.3740 23.9088
" />
<path d="M72.6956 61.0125
L86.3845 63.4262
" />
<path d="M124.8287,96.8418 C124.8287,96.8418 124.8287,98.6267 124.8287,98.6267" />
<path d="M229.5044,81.3682 C229.5044,81.3682 237.9215,83.1534 237.9215,83.1534" />
<path d="M149.0802,107.4873 C149.0802,107.4873 149.0802,111.3567 149.0802,111.3567" />
<path d="M114.3282,28.7873 C113.9800,28.2000 113.8300,27.4900 113.6500,27.2700" />
<path d="M90.5868 39.5938
L76.8979 37.1801
" />
<path d="M122.6925 76.9369
L120.2788 90.6257
" />
<path d="M157.8410 46.3497
L155.4273 32.6608
" />
<path d="M95.0531 43.9360
L97.4669 30.2472
" />
<path d="M196.2990 74.7034
L182.6102 77.1171
" />
<path d="M89.6925 44.6656
L87.2788 58.3544
" />
<path d="M126.3420,97.9286 C126.3420,97.9286 140.2515,97.9286 140.2515,97.9286" />
<path d="M199.5645 63.5660
L213.2533 61.1523
" />
<path d="M88.4372 81.4572
L90.8508 67.7684
" />
<path d="M221.3465 77.3937
L218.9328 63.7049
" />
<path d="M124.8287,98.6267 C124.8287,98.6267 126.3420,98.6267 126.3420,98.6267" />
<path d="M228.4194 37.4588
L214.7305 39.8725
" />
<path d="M179.3022 58.3565
L176.8885 44.6677
" />
<path d="M64.6048 77.2549
L50.9160 74.8412
" />
<path d="M190.5773 42.2539
L192.9910 55.9428
" />
<path d="M153.3770 50.6908
L139.6882 53.1045
" />
</g>
<g style="fill:#C2C200; fill-opacity:0.0; 
stroke:#C2C200; stroke-width:0.0500; stroke-opacity:1; 
stroke-linecap:round; stroke-linejoin:round;">
<path d="M152.7400 18.7400
L152.9731 16.8291
" />
</g>
<g style="fill:#C2C200; fill-opacity:0.0; 
stroke:#C2C200; stroke-width:0.1000; stroke-opacity:1; 
stroke-linecap:round; stroke-linejoin:round;">
<path d="M192.9910 55.9428
L179.3022 58.3565
" />
<path d="M54.2240 56.0806
L56.6377 42.3918
" />
<path d="M56.6377 42.3918
L70.3265 44.8055
" />
<path d="M50.9581 44.9443
L48.5444 58.6331
" />
<path d="M83.9708 77.1150
L70.2819 74.7013
" />
<path d="M151.3700,34.3200 C151.2245,35.1345 150.4469,35.6773 149.6322,35.5333" />
<path d="M76.0036 42.2519
L89.6925 44.6656
" />
<path d="M248.6820 42.6694
L251.0957 56.3582
" />
<path d="M50.9160 74.8412
L53.3297 61.1524
" />
<path d="M108.7231,117.0342 C108.7231,117.0342 157.9097,117.0342 157.9097,117.0342" />
<path d="M9.0928,79.8564 C9.0928,79.8564 27.9009,83.1669 27.9009,83.1669" />
<path d="M48.5444 58.6331
L34.8556 56.2194
" />
<path d="M18.7953 37.5977
L21.2090 23.9088
" />
<path d="M53.3297 61.1524
L67.0185 63.5661
" />
<path d="M218.0385 58.6331
L215.6248 44.9443
" />
<path d="M28.2818 63.8437
L25.8681 77.5325
" />
<path d="M109.0037 74.5232
L122.6925 76.9369
" />
<path d="M32.4841 40.0114
L18.7953 37.5977
" />
<path d="M175.9942 39.5959
L173.5805 25.9071
" />
<path d="M112.3117 55.7626
L126.0005 58.1763
" />
<path d="M57.5320 37.3200
L59.9457 23.6312
" />
<path d="M140.5825 58.1762
L154.2713 55.7625
" />
<path d="M209.9453 42.3917
L212.3590 56.0806
" />
<path d="M178.1458 81.4571
L164.4570 83.8708
" />
<path d="M204.9750,104.1764 C205.2832,104.0939 205.5336,103.8692 205.5850,103.5464" />
<path d="M100.0870,24.1348 C100.0870,24.1348 99.2610,22.2243 99.2610,22.2243" />
<path d="M45.2364 77.3937
L31.5476 74.9800
" />
<path d="M70.2819 74.7013
L72.6956 61.0125
" />
<path d="M215.6670 74.8412
L201.9782 77.2549
" />
<path d="M195.3622 39.7337
L192.9485 26.0449
" />
<path d="M251.0957 56.3582
L237.4069 58.7719
" />
<path d="M142.0149,111.6067 C141.8768,111.6067 141.7649,111.4947 141.7649,111.3567" />
</g>
<g style="fill:#C2C200; fill-opacity:0.0; 
stroke:#C2C200; stroke-width:0.0500; stroke-opacity:1; 
stroke-linecap:round; stroke-linejoin:round;">
<path d="M108.7231 117.0342
L61.6233 104.1856
" />
</g>
<g style="fill:#C2C200; fill-opacity:0.0; 
stroke:#C2C200; stroke-width:0.1000; stroke-opacity:1; 
stroke-linecap:round; stroke-linejoin:round;">
<path d="M141.7649,98.6267 C141.7649,98.6267 141.7649,96.8418 141.7649,96.8418" />
<path d="M250.1254,20.9124 C249.8726,19.4786 248.6269,18.4333 247.1710,18.4333" />
<path d="M104.5397 70.1821
L102.1260 83.8709
" />
<path d="M124.5787,111.6067 C124.5787,111.6067 117.7537,111.6067 117.7537,111.6067" />
<path d="M232.6217 61.2912
L235.0353 74.9800
" />
<path d="M142.2648,96.3418 C142.2648,96.3418 148.5802,96.3418 148.5802,96.3418" />
<path d="M37.8864,81.3581 C37.8864,81.3581 60.1912,85.3508 60.1912,85.3508" />
<path d="M117.5037,107.4873 C117.5037,107.4873 116.6684,107.4873 116.6684,107.4873" />
<path d="M238.6834,83.1666 C238.6834,83.1666 257.4728,79.8566 257.4728,79.8566" />
<path d="M140.2515,98.6267 C140.2515,98.6267 141.7649,98.6267 141.7649,98.6267" />
<path d="M15.4873 56.3583
L17.9010 42.6694
" />
<path d="M254.4037 75.1188
L240.7149 77.5325
" />
<path d="M114.9600,29.1800 C114.7067,29.1352 114.4805,28.9946 114.3282,28.7873" />
<path d="M108.7420 46.3497
L95.0531 43.9360
" />
<path d="M247.1710,18.4333 C247.1710,18.4333 167.9117,18.4333 167.9117,18.4333" />
<path d="M97.4669 30.2472
L111.1557 32.6609
" />
</g>
<g style="fill:#C2C200; fill-opacity:0.0; 
stroke:#C2C200; stroke-width:0.0500; stroke-opacity:1; 
stroke-linecap:round; stroke-linejoin:round;">
<path d="M151.3700 34.3200
L153.6600 20.7500
" />
</g>
<g style="fill:#C2C200; fill-opacity:0.0; 
stroke:#C2C200; stroke-width:0.1000; stroke-opacity:1; 
stroke-linecap:round; stroke-linejoin:round;">
<path d="M113.2060 50.6908
L115.6197 37.0020
" />
<path d="M123.5868 71.8651
L109.8980 69.4514
" />
<path d="M154.1300,16.0200 C153.5873,15.9250 153.0700,16.2868 152.9731,16.8291" />
<path d="M205.5828,86.3260 C205.5828,85.8415 205.9301,85.4267 206.4071,85.3415" />
<path d="M245.3740 23.9088
L247.7877 37.5976
" />
<path d="M61.0133,103.5556 C61.0155,101.5956 61.0155,86.3352 61.0155,86.3352" />
<path d="M143.8905 76.9368
L157.5793 74.5231
" />
<path d="M54.2662 26.1837
L51.8524 39.8726
" />
<path d="M98.5184,21.6366 C98.5184,21.6366 80.5317,18.4333 80.5317,18.4333" />
<path d="M93.0005 25.9050
L90.5868 39.5938
" />
<path d="M115.6197 37.0020
L129.3085 39.4157
" />
<path d="M167.9117,18.4333 C167.9117,18.4333 154.6400,16.1200 154.1300,16.0200" />
<path d="M149.9156,102.5972 C149.9156,102.5972 149.9156,107.4873 149.9156,107.4873" />
<path d="M28.6603,83.1542 C28.6603,83.1542 37.1213,81.3699 37.1213,81.3699" />
<path d="M234.0989 40.0113
L231.6852 26.3225
" />
<path d="M209.0510 37.3200
L195.3622 39.7337
" />
<path d="M148.5802,96.3418 C148.8564,96.3418 149.0802,96.5657 149.0802,96.8418" />
<path d="M100.8310,24.7227 C100.5000,24.6642 100.2204,24.4434 100.0870,24.1348" />
<path d="M238.3012 63.8437
L251.9900 61.4300
" />
<path d="M257.4728,79.8566 C259.1047,79.5691 260.1945,78.0129 259.9067,76.3811" />
<path d="M198.6702 58.4943
L196.2565 44.8054
" />
<path d="M109.8980 69.4514
L112.3117 55.7626
" />
<path d="M34.8978 26.3226
L32.4841 40.0114
" />
<path d="M201.9782 77.2549
L199.5645 63.5660
" />
<path d="M117.5037,111.3567 C117.5037,111.3567 117.5037,107.4873 117.5037,107.4873" />
<path d="M61.6233,104.1856 C61.3151,104.1031 61.0647,103.8784 61.0133,103.5556" />
<path d="M139.6882 53.1045
L137.2745 39.4156
" />
<path d="M161.1490 65.1102
L158.7353 51.4214
" />
<path d="M172.4241 49.0077
L174.8378 62.6965
" />
<path d="M141.7649,111.3567 C141.7649,111.3567 141.7649,109.8976 141.7649,109.8976" />
<path d="M259.9067,76.3811 C259.9067,76.3811 250.1254,20.9124 250.1254,20.9124" />
<path d="M141.7649,96.8418 C141.7649,96.5657 141.9887,96.3418 142.2648,96.3418" />
<path d="M126.3435,109.8976 C126.3435,109.8976 124.8287,109.8976 124.8287,109.8976" />
<path d="M33.9613 61.2912
L47.6501 63.7049
" />
<path d="M86.3845 63.4262
L83.9708 77.1150
" />
<path d="M113.6500,27.2700 C113.4977,27.0626 113.2713,26.9220 113.0179,26.8772" />
<path d="M229.3136 42.5306
L231.7274 56.2194
" />
<path d="M218.9328 63.7049
L232.6217 61.2912
" />
<path d="M157.5793 74.5231
L159.9930 88.2120
" />
<path style="fill:#C2C200; fill-opacity:0.0; 
stroke:#C2C200; stroke-width:0.1000; stroke-opacity:1; 
stroke-linecap:round; stroke-linejoin:round;fill:none"
d="M 83.4315,90.5176
79.8339,103.9439
66.4076,100.3464
70.0052,86.9200
Z" /> 
<path d="M140.2500,109.8976 C140.2500,109.8976 140.2500,111.8340 140.2500,111.8340" />
<path d="M140.2515,97.9286 C140.2515,97.9286 140.2515,98.6267 140.2515,98.6267" />
<path d="M149.9156,107.4873 C149.9156,107.4873 149.0802,107.4873 149.0802,107.4873" />
<path d="M240.7149 77.5325
L238.3012 63.8437
" />
<path d="M169.1161 30.2471
L171.5298 43.9360
" />
<path d="M212.3168 26.1837
L226.0057 23.7700
" />
<path d="M150.9633 37.0019
L153.3770 50.6908
" />
<path d="M38.1636 37.4589
L40.5773 23.7700
" />
<path d="M206.6373 23.6311
L209.0510 37.3200
" />
<path d="M80.5317,18.4333 C80.5317,18.4333 19.4219,18.4332 19.4219,18.4332" />
</g>
<g style="fill:#C2C200; fill-opacity:0.0; 
stroke:#C2C200; stroke-width:0.0500; stroke-opacity:1; 
stroke-linecap:round; stroke-linejoin:round;">
<path d="M153.6600 20.7500
L152.7400 18.7400
" />
</g>
<g style="fill:#C2C200; fill-opacity:0.0; 
stroke:#C2C200; stroke-width:0.1000; stroke-opacity:1; 
stroke-linecap:round; stroke-linejoin:round;">
<path d="M173.5805 25.9071
L187.2693 23.4934
" />
<path d="M27.9009,83.1669 C28.1525,83.2112 28.4103,83.2069 28.6603,83.1542" />
<path d="M12.1792 75.1188
L14.5930 61.4300
" />
<path d="M73.5899 55.9407
L76.0036 42.2519
" />
<path d="M87.2788 58.3544
L73.5899 55.9407
" />
<path d="M142.9962 71.8651
L140.5825 58.1762
" />
<path d="M126.8948 53.1045
L113.2060 50.6908
" />
<path d="M193.8853 61.0145
L196.2990 74.7034
" />
<path d="M149.0802,96.8418 C149.0802,96.8418 149.0802,102.5972 149.0802,102.5972" />
<path d="M16.4678,20.9108 C16.4678,20.9108 6.6586,76.3794 6.6586,76.3794" />
<path d="M61.0155,86.3352 C61.0155,85.8507 60.6682,85.4359 60.1912,85.3508" />
<path d="M94.1589 49.0078
L107.8477 51.4215
" />
<path d="M149.6322,35.5333 C147.7000,35.1800 115.1400,29.2100 114.9600,29.1800" />
<path d="M71.2208 39.7337
L57.5320 37.3200
" />
<path d="M124.8287,111.3567 C124.8287,111.4947 124.7167,111.6067 124.5787,111.6067" />
<path d="M237.4069 58.7719
L234.9932 45.0831
" />
<path d="M37.2693 42.5306
L50.9581 44.9443
" />
<path d="M129.3085 39.4157
L126.8948 53.1045
" />
<path d="M73.6345 26.0449
L71.2208 39.7337
" />
<path d="M173.5666 93.0626
L177.1642 106.4890
" />
<path d="M67.9128 58.4943
L54.2240 56.0806
" />
<path d="M154.2713 55.7625
L156.6850 69.4514
" />
<path d="M251.9900 61.4300
L254.4037 75.1188
" />
<path d="M158.7353 51.4214
L172.4241 49.0077
" />
<path d="M117.5037,102.5972 C117.5037,102.5972 117.5037,96.8418 117.5037,96.8418" />
<path d="M124.3287,96.3418 C124.6048,96.3418 124.8287,96.5657 124.8287,96.8418" />
<path d="M196.2565 44.8054
L209.9453 42.3917
" />
<path d="M117.7537,111.6067 C117.6156,111.6067 117.5037,111.4947 117.5037,111.3567" />
<path d="M29.1761 58.7720
L15.4873 56.3583
" />
<path d="M124.8287,109.8976 C124.8287,109.8976 124.8287,111.3567 124.8287,111.3567" />
<path d="M116.6684,107.4873 C116.6684,107.4873 116.6684,102.5972 116.6684,102.5972" />
<path d="M76.8979 37.1801
L79.3116 23.4913
" />
<path d="M176.8885 44.6677
L190.5773 42.2539
" />
<path d="M93.0126 93.0612
L106.4389 96.6588
" />
<path d="M149.0802,102.5972 C149.0802,102.5972 149.9156,102.5972 149.9156,102.5972" />
<path d="M31.5476 74.9800
L33.9613 61.2912
" />
<path d="M182.6102 77.1171
L180.1965 63.4282
" />
<path d="M31.5898 45.0832
L29.1761 58.7720
" />
<path d="M155.4273 32.6608
L169.1161 30.2471
" />
<path d="M90.8508 67.7684
L104.5397 70.1821
" />
<path d="M107.8477 51.4215
L105.4340 65.1103
" />
<path d="M162.0433 70.1820
L175.7321 67.7683
" />
<path d="M137.2745 39.4156
L150.9633 37.0019
" />
<path d="M160.1403 96.6602
L173.5666 93.0626
" />
<path d="M235.0353 74.9800
L221.3465 77.3937
" />
<path d="M111.1557 32.6609
L108.7420 46.3497
" />
<path d="M149.0802,111.3567 C149.0802,111.4947 148.9683,111.6067 148.8302,111.6067" />
<path d="M189.6830 37.1822
L175.9942 39.5959
" />
<path d="M70.3265 44.8055
L67.9128 58.4943
" />
<path d="M148.8302,111.6067 C148.8302,111.6067 142.0149,111.6067 142.0149,111.6067" />
<path d="M141.7649,109.8976 C141.7649,109.8976 140.2500,109.8976 140.2500,109.8976" />
<path style="fill:#C2C200; fill-opacity:0.0; 
stroke:#C2C200; stroke-width:0.1000; stroke-opacity:1; 
stroke-linecap:round; stroke-linejoin:round;fill:none"
d="M 200.1276,100.3264
186.7012,103.9239
183.1036,90.4976
196.5300,86.9000
Z" /> 
<path d="M17.9010 42.6694
L31.5898 45.0832
" />
<path d="M192.9485 26.0449
L206.6373 23.6311
" />
<path d="M47.6501 63.7049
L45.2364 77.3937
" />
<path d="M234.9932 45.0831
L248.6820 42.6694
" />
<path d="M105.4340 65.1103
L91.7452 62.6966
" />
<path d="M116.6684,102.5972 C116.6684,102.5972 117.5037,102.5972 117.5037,102.5972" />
<path d="M117.5037,96.8418 C117.5037,96.5657 117.7276,96.3418 118.0037,96.3418" />
<path d="M118.0037,96.3418 C118.0037,96.3418 124.3287,96.3418 124.3287,96.3418" />
<path d="M140.2500,111.8340 C140.2500,111.8340 126.3435,111.8340 126.3435,111.8340" />
<path d="M25.8681 77.5325
L12.1792 75.1188
" />
<path d="M159.9930 88.2120
L146.3042 90.6257
" />
<path d="M156.6850 69.4514
L142.9962 71.8651
" />
<path d="M212.3590 56.0806
L198.6702 58.4943
" />
<path d="M21.2090 23.9088
L34.8978 26.3226
" />
<path d="M106.5900 88.2120
L109.0037 74.5232
" />
<path d="M171.5298 43.9360
L157.8410 46.3497
" />
<path d="M51.8524 39.8726
L38.1636 37.4589
" />
<path d="M206.4071,85.3415 C206.4071,85.3415 228.7380,81.3558 228.7380,81.3558" />
<path d="M247.7877 37.5976
L234.0989 40.0113
" />
<path d="M37.1213,81.3699 C37.3732,81.3168 37.6330,81.3128 37.8864,81.3581" />
<path d="M40.5773 23.7700
L54.2662 26.1837
" />
<path d="M163.7378 110.0865
L160.1403 96.6602
" />
<g >
</g>
<g >
</g>
<g >
</g>
<g >
</g>
<g >
</g>
<g >
</g>
<g >
</g>
<g >
</g>
<g >
</g>
<g >
</g>
<g >
</g>
<g >
</g>
<g >
</g>
<g >
</g>
<g >
</g>
<g >
</g>
<g >
</g>
<g >
</g>
<g >
</g>
<g >
</g>
<g >
</g>
<g >
</g>
<g >
</g>
<g >
</g>
<g >
</g>
<g >
</g>
<g >
</g>
<g >
</g>
<g >
</g>
<g >
</g>
<g >
</g>
<g >
</g>
<g >
</g>
<g >
</g>
<g >
</g>
<g >
</g>
<g >
</g>
<g >
</g>
<g >
</g>
<g >
</g>
<g >
</g>
<g >
</g>
<g >
</g>
<g >
</g>
<g >
</g>
<g >
</g>
<g >
</g>
</g> 
</svg>
